Coordinates
version=1
nRows=4
nColumns=107
inDegrees=yes

Units are S.I. units (second, meters, Newtons, ...)
If the header above contains a line with 'inDegrees', this indicates whether rotational values are in degrees (yes) or radians (no).

endheader
time	sternoclavicular_r2	sternoclavicular_r3	unrotscap_r3	unrotscap_r2	acromioclavicular_r2	acromioclavicular_r3	acromioclavicular_r1	unrothum_r1	unrothum_r3	unrothum_r2	elv_angle	shoulder_elv	shoulder1_r2	shoulder_rot	elbow_flexion	pro_sup	deviation	flexion	proximal_distal_r1	proximal_distal_r3	cmc_flexion	cmc_abduction	mp_flexion	ip_flexion	mcp2_flexion	mcp2_abduction	pm2_flexion	md2_flexion	mcp3_flexion	mcp3_abduction	pm3_flexion	md3_flexion	mcp4_flexion	mcp4_abduction	pm4_flexion	md4_flexion	mcp5_flexion	mcp5_abduction	pm5_flexion	md5_flexion	bicpt_tx	bicpt_ty	bicpt_tz	bicpt2_tx	bicpt2_ty	bicpt2_tz	ptpt_tx	ptpt_ty	ptpt_tz	FCUpt_tx	FCUpt_ty	FCUpt_tz	EDCpt_tx	EDCpt_ty	EDCpt_tz	APLpt_tx	APLpt_ty	APLpt_tz	FPLpt_tx	FPLpt_ty	FPLpt_tz	FPLpt2_tx	FPLpt2_ty	FPLpt2_tz	PEC1pt2_tx	PEC1pt2_ty	PEC1pt2_tz	PEC1pt3_tx	PEC1pt3_ty	PEC1pt3_tz	PEC2pt2_tx	PEC2pt2_ty	PEC2pt2_tz	PEC2pt3_tx	PEC2pt3_ty	PEC2pt3_tz	PEC3pt2_tx	PEC3pt2_ty	PEC3pt2_tz	PEC3pt3_tx	PEC3pt3_ty	PEC3pt3_tz	DELT2pt2a_tx	DELT2pt2a_ty	DELT2pt2a_tz	DELT2pt2_tx	DELT2pt2_ty	DELT2pt2_tz	LAT1pt2_tx	LAT1pt2_ty	LAT1pt2_tz	LAT1pt3_tx	LAT1pt3_ty	LAT1pt3_tz	LAT2pt2_tx	LAT2pt2_ty	LAT2pt2_tz	LAT2pt3_tx	LAT2pt3_ty	LAT2pt3_tz	LAT3pt2_tx	LAT3pt2_ty	LAT3pt2_tz	LAT3pt3_tx	LAT3pt3_ty	LAT3pt3_tz
      0.36666667	     -0.31628611	      0.13396387	     -0.13396387	      0.31628611	     -0.06404150	      0.51756091	      0.23264007	     -0.23264007	     -0.51756091	      0.06404150	    100.57348936	     74.88354893	     -1.75533853	    -28.67906835	     28.09432977	     20.26306124	     -0.05033574	     -1.02998521	     -0.07038599	     -0.51499260	     -8.66917369	      5.36318480	    -25.13758864	      5.19731904	     19.61897072	      5.28787990	     19.59641770	    -34.01097025	     58.95998384	      7.84714391	     86.85657952	     69.50939999	     66.55415739	     -7.78452967	     89.81968408	     40.86932365	     14.75046614	    -10.38330396	    -18.39776402	      4.86566967	      0.00082927	     -0.03082004	     -0.00481866	      0.01609194	     -0.01783196	     -0.00930389	      0.00605279	     -0.06586812	     -0.00168230	      0.00585326	     -0.18385033	     -0.00009963	     -0.00243156	      0.00063748	      0.00018255	      0.00016540	      0.00006616	      0.00033080	      0.00021171	      0.00063513	      0.00035726	     -0.00100374	      0.00025848	      0.00031018	      0.00245452	      0.00861162	      0.00599069	     -0.00802919	      0.01938654	     -0.01838809	      0.00245452	      0.00861162	      0.00599069	      0.00054083	      0.01797207	     -0.00944366	      0.00389905	      0.00478881	      0.01584689	      0.00000000	      0.00749759	      0.00000000	     -0.00703074	     -0.03249117	     -0.00618048	      0.01828079	     -0.00071226	     -0.00686636	     -0.00087364	      0.01464391	     -0.00599069	      0.00241292	      0.02113382	     -0.01747284	     -0.00586588	      0.01268861	     -0.00536666	     -0.01223099	      0.02679169	     -0.02999505	     -0.02296431	      0.01418628	     -0.00719715	     -0.01522633	      0.03095189	     -0.03748341
      0.40000000	     -0.31626289	      0.13395403	     -0.13395403	      0.31626289	     -0.06403680	      0.51752291	      0.23262299	     -0.23262299	     -0.51752291	      0.06403680	    100.58007507	     74.87805045	     -1.75545347	    -28.67555290	     28.09688592	     20.26313262	     -0.05034998	     -1.02997772	     -0.07040701	     -0.51498886	     -8.66914939	      5.36312707	    -25.13746119	      5.19724843	     19.61987993	      5.28785717	     19.59657269	    -34.01080602	     58.96006603	      7.84711068	     86.85662844	     69.50932861	     66.55454844	     -7.78458775	     89.81940291	     40.86919934	     14.75257632	    -10.38281685	    -18.39683112	      4.86575605	      0.00082936	     -0.03082033	     -0.00481871	      0.01609194	     -0.01783266	     -0.00930388	      0.00605278	     -0.06586813	     -0.00168230	      0.00585327	     -0.18385033	     -0.00009963	     -0.00243157	      0.00063748	      0.00018255	      0.00016540	      0.00006616	      0.00033079	      0.00021171	      0.00063512	      0.00035726	     -0.00100374	      0.00025848	      0.00031018	      0.00245434	      0.00861098	      0.00599025	     -0.00802860	      0.01938511	     -0.01838674	      0.00245434	      0.00861098	      0.00599025	      0.00054079	      0.01797075	     -0.00944296	      0.00389884	      0.00478846	      0.01584637	      0.00000000	      0.00749648	      0.00000000	     -0.00703022	     -0.03248878	     -0.00617956	      0.01827916	     -0.00071214	     -0.00686472	     -0.00087358	      0.01464283	     -0.00599025	      0.00241274	      0.02113227	     -0.01747156	     -0.00586545	      0.01268768	     -0.00536626	     -0.01223009	      0.02678973	     -0.02999284	     -0.02296262	      0.01418524	     -0.00719662	     -0.01522522	      0.03094962	     -0.03748066
      0.43333333	     -0.31801282	      0.13469522	     -0.13469522	      0.31801282	     -0.06439113	      0.52038643	      0.23391012	     -0.23391012	     -0.52038643	      0.06439113	    100.09680301	     75.29236119	     -1.74701878	    -26.26235874	     27.99758924	     17.87912059	     -0.04595599	     -1.04353222	     -0.06409731	     -0.52176611	     -8.62901785	      5.46598823	    -25.04565556	      5.07028031	     19.84540898	      5.32315811	     19.40092259	    -33.18495723	     59.02330786	      7.87048102	     86.87363523	     69.21878456	     66.80971854	     -7.82695387	     89.67274821	     40.64498959	     15.09508164	    -10.22181429	    -17.89481944	      4.83367397	      0.00082607	     -0.03080895	     -0.00481688	      0.01597334	     -0.01780568	     -0.00948842	      0.00622893	     -0.06575422	     -0.00149026	      0.00562865	     -0.18388576	     -0.00004513	     -0.00214549	      0.00055590	      0.00017262	      0.00015573	      0.00006229	      0.00031146	      0.00019933	      0.00059800	      0.00033637	     -0.00099446	      0.00025709	      0.00030851	      0.00246792	      0.00865863	      0.00602339	     -0.00807302	      0.01949237	     -0.01848847	      0.00246792	      0.00865863	      0.00602339	      0.00054378	      0.01807018	     -0.00949521	      0.00391469	      0.00481495	      0.01588579	      0.00000000	      0.00758023	      0.00000000	     -0.00706912	     -0.03266855	     -0.00624910	      0.01712770	     -0.00063162	     -0.00576698	     -0.00087841	      0.01472385	     -0.00602339	      0.00242609	      0.02124920	     -0.01756823	     -0.00589791	      0.01275788	     -0.00539596	     -0.01229776	      0.02693796	     -0.03015880	     -0.02308968	      0.01426373	     -0.00723644	     -0.01530946	      0.03112087	     -0.03768804
      0.46666667	     -0.31753400	      0.13449242	     -0.13449242	      0.31753400	     -0.06429418	      0.51960291	      0.23355793	     -0.23355793	     -0.51960291	      0.06429418	    100.24242806	     75.17899675	     -1.74956042	    -26.95334357	     27.97819875	     18.44885239	     -0.05171803	     -1.04712795	     -0.07237704	     -0.52356398	     -8.69603239	      5.48128676	    -24.77676448	      4.53757880	     19.94453440	      5.30591779	     19.25646240	    -32.39400962	     59.07806707	      7.80432147	     86.86585773	     69.07646618	     66.93603607	     -7.99225988	     89.69201169	     40.47023482	     15.42372992	    -10.03897431	    -18.38788698	      4.83984088	      0.00082543	     -0.03080673	     -0.00481652	      0.01600287	     -0.01780041	     -0.00944505	      0.00618684	     -0.06578144	     -0.00153615	      0.00568217	     -0.18387744	     -0.00005855	     -0.00221386	      0.00057524	      0.00017528	      0.00015314	      0.00006125	      0.00030627	      0.00019601	      0.00058804	      0.00033078	     -0.00100983	      0.00025941	      0.00031129	      0.00246420	      0.00864559	      0.00601432	     -0.00806087	      0.01946302	     -0.01846064	      0.00246420	      0.00864559	      0.00601432	      0.00054296	      0.01804297	     -0.00948091	      0.00391036	      0.00480770	      0.01587504	      0.00000000	      0.00755727	      0.00000000	     -0.00705848	     -0.03261936	     -0.00623004	      0.01746536	     -0.00065449	     -0.00607348	     -0.00087709	      0.01470168	     -0.00601432	      0.00242244	      0.02121720	     -0.01754178	     -0.00588903	      0.01273867	     -0.00538783	     -0.01227925	      0.02689740	     -0.03011339	     -0.02305491	      0.01424226	     -0.00722554	     -0.01528641	      0.03107401	     -0.03763130
